<svg width="24" height="24" fill="none" xmlns="http://www.w3.org/2000/svg"><g clip-path="url(#clip0)"><path d="M4.252 22.891c.141.141.333.22.532.22h14.498a.727.727 0 00.727-.727V1.47a.727.727 0 00-.206-.506H4.252V22.89zm0 0a.753.753 0 01-.22-.532l.22.532zM19.282.743H4.784c-.2 0-.39.08-.532.22l15.03-.22zm0 0c.196 0 .384.08.521.22l-.521-.22zm-15.25.753c0-.2.079-.391.22-.532l-.22.532z" fill="#DBB69A"/><path d="M4.252 22.891c.141.141.333.22.532.22h14.498a.727.727 0 00.727-.727V1.47a.727.727 0 00-.206-.506M4.252 22.89a.753.753 0 01-.22-.532m.22.532l-.22-.532m.22.532V.964m15.551 0a.727.727 0 00-.521-.22m.521.22l-.521-.22m.521.22H4.252m-.22 21.395V1.496m15.25-.753H4.784c-.2 0-.39.08-.532.22m15.03-.22l-15.03.22m0 0a.753.753 0 00-.22.533m.22-.532l-.22.532" stroke="#DBB69A" stroke-linecap="round" stroke-linejoin="round"/><path d="M3.188 22.327V2.079A1.807 1.807 0 014.87.276L7.5.094v24l-2.059-.058a2.635 2.635 0 01-2.038-1.06 1.088 1.088 0 01-.216-.65z" fill="#BA9B83"/><path d="M10.989 4.7l-.945-.576c1.682-3.287 3.506-1.702.945.576zM17.79 5.76c-.013.422.195.695.45.937 3.152-.856 1.23-3.974-.45-.938z" fill="#81D4FA" stroke="#000" stroke-width=".5"/><path opacity=".15" d="M19.274 4.46c.888-.009 1.122 1.596-.939 2.208.584-.698 1-1.391.451-2.057.176-.102.341-.15.488-.152z" fill="#000"/><path d="M5.894 13.734c-1.346 7.428 1.275 5.337 4.876 7.317 3.6 1.98 7.143.833 8.406-6.042 1.262-6.875-.348-10.343-6.223-11.358-5.876-1.015-6.104 4.811-7.06 10.083v0z" fill="#81D4FA" stroke="#010101" stroke-width=".5" stroke-linecap="round" stroke-linejoin="round"/><path opacity=".15" d="M12.91 6.712l-.329 6.327c1.657.131 3.577-.835 3.453-3.216-.124-2.382-2.013-3.017-3.124-3.111z" fill="#000"/><path d="M8.094 9.58c-.17 1.555-.58 2.784-2.09 2.61-1.508-.175-2.594-1.578-2.424-3.132.17-1.555 1.53-2.674 3.039-2.5 1.509.175 1.645 1.468 1.475 3.022v0zM12.163 13.024c1.694.196 3.221-1.06 3.412-2.806.19-1.745-1.029-3.32-2.723-3.516-1.694-.196-3.221 1.06-3.412 2.806-.19 1.746 1.029 3.32 2.723 3.516z" fill="#fff" stroke="#000" stroke-width=".5" stroke-linecap="round" stroke-linejoin="round"/><path d="M10.87 11.827c.383.044.729-.24.772-.635a.715.715 0 00-.616-.796.704.704 0 00-.772.635.715.715 0 00.616.796zM6.132 11.188c.383.045.73-.24.772-.635a.715.715 0 00-.616-.795.704.704 0 00-.772.635.715.715 0 00.616.795z" fill="#000"/><path opacity=".15" d="M12.91 6.712c2.09.904 2.645 5.034-.329 6.327 1.542-.038 2.82-1.242 2.994-2.82.186-1.723-.998-3.281-2.665-3.507z" fill="#000"/><path d="M10.525 11.238a.213.213 0 00.234-.192.217.217 0 00-.187-.242.213.213 0 00-.234.193c-.013.12.07.228.187.241zM5.805 10.537a.213.213 0 00.234-.193.217.217 0 00-.187-.24.213.213 0 00-.234.192c-.013.12.07.227.187.24z" fill="#fff"/><path opacity=".15" d="M7.146 6.685c.964 1.367.292 5.004-.806 5.519 1.236-.036 1.598-1.191 1.754-2.624.148-1.35.064-2.5-.948-2.895zM7.736 14.894c.164 1.08.588.914.985.722.414-.199.299-.756.509-.9.21-.145 1.48-1.396.252-1.889l-1.255-.067-.491 2.134z" fill="#000"/><path d="M7.759 13.273s-.65 1.687-.179 2.029c.472.341.916.235 1.256-.262.34-.497-.73-1.849-.73-1.849l-.347.082z" fill="#fff" stroke="#000" stroke-width=".5"/><path opacity=".15" d="M8.105 13.191l-.346.082s-.157.41-.26.865c.607.168 1.15.395 1.09 1.178.087-.072.17-.164.247-.276.34-.497-.73-1.849-.73-1.849z" fill="#000"/><path d="M9.469 13.984c-.652.87-.83-.028-1.383-.104-.551-.076-.571.418-1.095-.288-.523-.706.322-1.351 1.33-1.213 1.009.14 1.799.734 1.148 1.605h0z" fill="#DBB69A" stroke="#000" stroke-width=".5" stroke-linecap="round" stroke-linejoin="round"/><path opacity=".15" d="M8.687 12.453a3.01 3.01 0 00-.198-.045c.286.361.799 1.238-.387 1.476.54.09.722.962 1.367.1.57-.763.036-1.313-.782-1.531z" fill="#000"/><path d="M9.039 12.341c-.053.405-.931.652-1.286.603-.355-.048-.768-.474-.716-.878.053-.405.185-.628 1.064-.507.88.122.99.378.938.782z" fill="#000"/><path d="M8.102 13.884c-.133.444-.187.91-.137 1.6" stroke="#000" stroke-width=".3"/><path opacity=".15" d="M14.708 4.07c4.432 1.388 5.594 4.808 4.468 10.94-1.034 5.629-3.597 7.415-6.468 6.792a6.3 6.3 0 001.465-1.087c.212-.21.412-.434.601-.672 3.812-4.8 2.946-15.02-.066-15.973z" fill="#000"/><path opacity=".3" d="M6.866 18.957c-.145-.15-.292-.301-.323-.47" stroke="#000" stroke-width=".4" stroke-linecap="round"/><path opacity=".3" d="M6.447 18.773a.68.68 0 01-.192-.57" stroke="#000" stroke-width=".3" stroke-linecap="round"/><path opacity=".3" d="M12.661 21.22c.204.029.408-.03.557-.183" stroke="#000" stroke-width=".7" stroke-linecap="round"/><path d="M4.875.5h14.202a1.256 1.256 0 011.256 1.256v20.488a1.256 1.256 0 01-1.256 1.256H4.875a1.281 1.281 0 01-1.281-1.281V1.78A1.281 1.281 0 014.875.5z" stroke="#000" stroke-linecap="round" stroke-linejoin="round"/></g><defs><clipPath id="clip0"><path fill="#fff" d="M0 0h24v24H0z"/></clipPath></defs></svg>