<svg width="256" height="256" fill="none" xmlns="http://www.w3.org/2000/svg"><g clip-path="url(#clip0)"><path d="M45.352 244.172a8.04 8.04 0 005.682 2.354h154.637a7.763 7.763 0 005.565-2.352 7.766 7.766 0 002.193-5.406V15.684a7.763 7.763 0 00-2.194-5.406l-165.882.001v233.893zm0 0a8.035 8.035 0 01-2.352-5.68l2.352 5.68zM205.671 7.926H51.034c-2.13 0-4.174.846-5.68 2.353L205.67 7.926zm0 0c2.096 0 4.104.849 5.564 2.352l-5.564-2.352zM43 15.96c0-2.13.846-4.174 2.353-5.68L43 15.96z" fill="#DBB69A"/><path d="M45.352 244.172a8.04 8.04 0 005.682 2.354h154.637a7.763 7.763 0 005.565-2.352 7.766 7.766 0 002.193-5.406V15.684a7.763 7.763 0 00-2.194-5.406M45.352 244.172a8.035 8.035 0 01-2.352-5.68m2.352 5.68L43 238.492m2.352 5.68l.001-233.893m165.882 0a7.758 7.758 0 00-5.564-2.353m5.564 2.352l-5.564-2.352m5.564 2.352l-165.882.001M43 238.492V15.96m162.671-8.034H51.034c-2.13 0-4.174.846-5.68 2.353M205.67 7.926L45.353 10.279m0 0A8.034 8.034 0 0043 15.96m2.353-5.68L43 15.96" stroke="#DBB69A" stroke-width="14.291" stroke-linecap="round" stroke-linejoin="round"/><path d="M34 238.15V22.178A19.279 19.279 0 0151.945 2.945L80 1v256l-21.96-.617a28.103 28.103 0 01-21.74-11.296 11.608 11.608 0 01-2.3-6.937z" fill="#BA9B83"/><path d="M117.215 50.133l-10.075-6.142c17.937-35.062 37.396-18.156 10.075 6.142zM189.764 61.433c-.144 4.51 2.079 7.42 4.788 10.003 33.635-9.135 13.127-42.389-4.788-10.003z" fill="#81D4FA" stroke="#000" stroke-width="2.1"/><path opacity=".15" d="M205.592 47.564c9.471-.086 11.97 17.034-10.013 23.559 6.226-7.443 10.657-14.835 4.811-21.94 1.868-1.085 3.634-1.605 5.202-1.62z" fill="#000"/><path d="M62.866 146.501c-14.359 79.224 13.608 56.922 52.008 78.038 38.401 21.116 76.203 8.889 89.668-64.442 13.466-73.33-3.708-110.323-66.379-121.15C75.491 28.118 73.059 90.264 62.866 146.5v0z" fill="#81D4FA" stroke="#010101" stroke-width="2.1" stroke-linecap="round" stroke-linejoin="round"/><path opacity=".15" d="M137.706 71.59l-3.503 67.496c17.668 1.395 38.146-8.904 36.823-34.31-1.322-25.406-21.474-32.184-33.32-33.186z" fill="#000"/><path d="M86.34 102.192c-1.808 16.585-6.195 29.692-22.289 27.828-16.094-1.864-27.674-16.821-25.865-33.407 1.81-16.585 16.322-28.52 32.416-26.655 16.094 1.864 17.548 15.648 15.739 32.234v0zM129.735 138.922c18.069 2.094 34.364-11.305 36.394-29.927 2.031-18.62-10.97-35.413-29.039-37.506-18.069-2.093-34.363 11.306-36.394 29.927-2.031 18.621 10.97 35.413 29.039 37.506z" fill="#fff" stroke="#000" stroke-width="2.1" stroke-linecap="round" stroke-linejoin="round"/><path d="M115.943 126.152c4.09.474 7.778-2.559 8.238-6.773.459-4.215-2.483-8.016-6.573-8.49-4.09-.473-7.778 2.559-8.237 6.774-.46 4.215 2.483 8.015 6.572 8.489zM65.407 119.343c4.09.474 7.778-2.559 8.238-6.773.46-4.215-2.483-8.016-6.573-8.49-4.09-.473-7.778 2.559-8.238 6.774-.46 4.215 2.483 8.016 6.573 8.489z" fill="#000"/><path opacity=".15" d="M137.706 71.59c22.302 9.642 28.218 53.702-3.503 67.496 16.442-.405 30.072-13.251 31.928-30.092 1.988-18.365-10.648-34.993-28.425-37.404z" fill="#000"/><path d="M112.266 119.872c1.239.144 2.357-.775 2.496-2.052.14-1.278-.752-2.43-1.992-2.573-1.239-.144-2.357.775-2.496 2.053-.14 1.277.752 2.429 1.992 2.572zM61.916 112.394c1.24.143 2.357-.776 2.496-2.053.14-1.278-.752-2.43-1.992-2.573-1.24-.144-2.357.775-2.496 2.053-.14 1.277.752 2.429 1.992 2.573z" fill="#fff"/><path opacity=".15" d="M76.227 71.303c10.283 14.589 3.11 53.384-8.596 58.873 13.18-.388 17.043-12.705 18.71-27.985 1.57-14.398.675-26.677-10.114-30.888zM82.514 158.867c1.758 11.531 6.27 9.749 10.508 7.708 4.418-2.127 3.188-8.071 5.43-9.611 2.243-1.54 15.793-14.889 2.685-20.139l-13.385-.722-5.238 22.764z" fill="#000"/><path d="M82.763 141.574s-6.93 17.999-1.905 21.643c5.025 3.645 9.768 2.513 13.39-2.791 3.621-5.304-7.793-19.72-7.793-19.72l-3.692.868z" fill="#fff" stroke="#000" stroke-width="2.1"/><path opacity=".15" d="M86.454 140.706l-3.692.868s-1.677 4.371-2.782 9.236c6.487 1.789 12.285 4.212 11.643 12.556.925-.766 1.804-1.739 2.624-2.94 3.622-5.303-7.793-19.719-7.793-19.719v-.001z" fill="#000"/><path d="M100.998 149.158c-6.945 9.29-8.857-.29-14.743-1.101-5.886-.81-6.1 4.451-11.684-3.079-5.584-7.529 3.439-14.41 14.193-12.93 10.754 1.481 19.178 7.82 12.233 17.11h.001z" fill="#DBB69A" stroke="#000" stroke-width="2.1" stroke-linecap="round" stroke-linejoin="round"/><path opacity=".15" d="M92.662 132.828a31.31 31.31 0 00-2.118-.479c3.059 3.855 8.524 13.21-4.128 15.747 5.757.965 7.704 10.264 14.583 1.061 6.077-8.129.385-13.998-8.337-16.33v.001z" fill="#000"/><path d="M96.413 131.641c-.559 4.313-9.93 6.954-13.714 6.433-3.785-.521-8.192-5.059-7.633-9.372.559-4.313 1.968-6.693 11.349-5.402 9.381 1.292 10.557 4.028 9.998 8.341z" fill="#000"/><path d="M86.416 148.097c-1.418 4.74-1.992 9.701-1.456 17.064" stroke="#000" stroke-width=".664"/><path opacity=".15" d="M156.882 43.41c47.275 14.81 59.669 51.288 47.659 116.691-11.026 60.045-38.367 79.105-68.995 72.453 5.763-3.068 10.963-6.989 15.629-11.593a79.81 79.81 0 006.416-7.168c40.654-51.192 31.423-160.216-.709-170.382z" fill="#000"/><path opacity=".3" d="M73.24 202.208c-1.549-1.607-3.113-3.213-3.45-5.013M68.764 200.24c-1.548-1.607-2.358-3.774-2.045-6.068M135.053 226.339c2.177.315 4.345-.315 5.94-1.947" stroke="#000" stroke-width=".7" stroke-linecap="round"/><path d="M52 1.05h151.487a17.68 17.68 0 0117.68 17.68v218.54a17.682 17.682 0 01-17.68 17.68H52.001a17.949 17.949 0 01-17.951-17.951V19.001A17.95 17.95 0 0152 1.05z" stroke="#000" stroke-width="2.1" stroke-linecap="round" stroke-linejoin="round"/></g><defs><clipPath id="clip0"><path fill="#fff" d="M0 0h256v256H0z"/></clipPath></defs></svg>